<svg xmlns="http://www.w3.org/2000/svg" xmlns:xlink="http://www.w3.org/1999/xlink" xmlns:inkscape="http://www.inkscape.org/namespaces/inkscape" version="1.1" width="11338.6" height="5669.29" viewBox="0 0 11338.6 5669.29">
<defs>
<clipPath id="clip_0">
<path transform="matrix(1,0,0,-1,0,5669.29)" d="M0 5669.292H11338.583V0H0Z"/>
</clipPath>
</defs>
<path transform="matrix(1,0,0,-1,6519.029,1090.081)" d="M0 0-13.563 657.775-410.686 649.578-404.289 339.951-939.437 789.893-1156.202 972.173-1417.833 752.174-2756.106-373.09-2755.722-373.545H-2233.368L-1156.185 532.176-395.061-107.806-79.019-373.545H7.708 443.335L443.72-373.09Z" fill="#d45827"/>
<path transform="matrix(1,0,0,-1,1622.454,1641.9697)" d="M0 0V-777.104H-603.227V.525H-1050.517V-2034.853H-603.227V-1224.395H0V-2035.377H447.291V0Z" fill="#0a599c"/>
<path transform="matrix(1,0,0,-1,6284.873,1599.6765)" d="M0 0H-400.164-516.482L-922.448-703.167-1328.415 0H-1478.71-1844.879-1925.996V-2035.375H-1478.71V-634.232L-1180.672-1150.435-922.448-1597.719-664.208-1150.435-400.164-693.116V-2035.375H47.121V0Z" fill="#d45827"/>
<g clip-path="url(#clip_0)">
<path transform="matrix(1,0,0,-1,3570.8172,2949.1473)" d="M0 0C-12.794-11.431-25.326-24.469-37.264-38.941-45.618-49.043-53.658-59.845-61.314-71.293-99.049-127.73-118.73-187.331-118.73-234.348V-339.094C-118.73-351.294-128.64-361.204-140.857-361.204H-261.911C-270.842-361.204-278.533-355.909-282.011-348.271L-274.932-162.477-273.517-125.581-258.398 270.86H-470.427L-455.203-126.525-453.822-162.495-446.831-344.705C-449.313-354.196-457.947-361.204-468.224-361.204H-589.279C-601.496-361.204-611.388-351.294-611.388-339.094V-252.298C-609.99-240.902-609.99-228.457-611.388-215.296-615.985-171.514-635.753-119.621-669.468-70.314-679.781-55.231-690.809-41.266-702.258-28.594-707.344-22.949-712.517-17.548-717.761-12.427-806.288 83.896-860.942 216.259-860.942 362.324-860.942 656.954-638.637 895.794-364.421 895.794-90.188 895.794 132.118 656.954 132.118 362.324 132.118 222.445 81.99 95.134 0 0M-129.671-566.032C-129.671-588.229-147.831-606.389-170.028-606.389H-577.655C-599.853-606.389-618.012-588.229-618.012-566.032V-515.433C-618.012-493.235-599.853-475.075-577.655-475.075H-170.028C-147.831-475.075-129.671-493.235-129.671-515.433ZM-364.421 1324.115C-875.659 1324.115-1290.12 852.553-1290.12 270.86-1290.12-310.833-875.659-782.395-364.421-782.395 146.835-782.395 561.278-310.833 561.278 270.86 561.278 852.553 146.835 1324.115-364.421 1324.115" fill="#0a599c"/>
<path transform="matrix(1,0,0,-1,7417.584,2438.4393)" d="M0 0C-51.071-51.072-121.509-82.777-199.007-82.777H-356.993C-372.181-82.777-387.09-81.554-401.649-79.212V477.226C-387.09 479.567-372.181 480.791-356.993 480.791H-199.007C-44.027 480.791 82.777 353.986 82.777 199.007 82.777 121.526 51.071 51.071 0 0M-117.017 838.763H-401.649-423.2-848.952V672.58-299.594-1196.612H-401.649V-465.778H-117.017C230.241-465.778 514.349-181.651 514.349 165.606V207.379C514.349 554.637 230.241 838.763-117.017 838.763" fill="#d45827"/>
<path transform="matrix(1,0,0,-1,8488.771,2544.5675)" d="M0 0V244.189 535.516H198.291C335.547 535.516 447.862 423.201 447.862 285.927V249.572C447.862 199.217 432.744 152.236 406.841 112.91 362.114 45.024 285.21 0 198.291 0ZM599.538-289.527C778.917-176.285 899.255 27.738 899.255 259.325V301.867C899.255 655.521 618.643 944.891 275.649 944.891H0-26.776-447.302V775.649-214.44-1090.484H0V-383.699H148.705L487.136-1090.484H983.063Z" fill="#0a599c"/>
<path transform="matrix(1,0,0,-1,10714.816,2417.0814)" d="M0 0C-2.22-11.99-35.656-34.222-48.065-33.838-55.599-33.593-69.948-20.694-76.188-15.45-80.155-12.112-151.852 63.097-163.352 71.05-183.592 85.049-237.861 115.042-261.405 113.783-266.089 113.539-270.057 111.617-274.356 110.113-333.485 89.612-414.13-50.459-417.625-53.99L-567.851-56.611C-585.434-52.505-643.531 48.975-676.758 78.53-678.89 80.436-699.007 94.015-700.755 94.418-721.17 99.032-761.789 87.129-776.593 103.052-791.537 119.167-794.928 138.271-817.107 149.352-848.009 164.82-880.134 153.651-909.183 183.976-925.315 200.825-934.998 219.702-919.67 241.584-917.152 245.168-842.066 299.245-819.013 312.214-801.045 322.316-803.51 327.962-794.071 338.885-791.327 342.066-786.363 342.399-783.654 344.898-779.372 348.848-776.174 357.308-769.515 363.6-759.481 373.056-748.261 377.565-743.314 378.876-739.172 379.977-728.038 382.773-715.401 378.946-708.55 376.849-705.229 374.017-702.048 372.322-683.871 362.639-656.745 384.102-632.975 393.645-605.656 404.621-581.973 407.173-556.42 409.934-556.42 409.934-533.716 412.364-507.708 411.822-385.011 409.271-292.674 368.756-292.674 368.756-158.79 301.919-68.689 178.715-12.795 43.277-6.782 28.717 3.478 18.702 0 0M182.192 314.923C181.633 316.654 181.074 318.384 180.479 320.115 134.18 460.08 48.956 581.012-61.629 668.717-65.841 672.091-70.105 675.376-74.388 678.628-161.447 744.572-263.397 790.279-373.965 809.208-396.547 813.087-419.513 815.832-442.759 817.405-458.122 818.454-473.607 818.978-489.216 818.978-504.824 818.978-520.31 818.454-535.655 817.405H-1189.201V-564.896C-1188.345-570.786-1187.419-576.641-1186.422-582.479-1135.124-884.118-909.689-1122.678-622.819-1180.146L-613.766-653.161-612.542-582.479-605.813-190.705-469.71-187.017-467.158-186.947-374.646-184.429-374.506-188.642-373.965-204.862-359.038-652.095-353.497-818.4-341.508-1177.298C-259.482-1159.155-182.718-1126.139-113.871-1081.08-113.137-1081.08-112.403-1081.063-111.651-1081.028-6.625-1012.024 79.822-914.862 138.008-799.646 139.825-795.364 141.643-791.047 143.426-786.695 143.443-786.677 143.461-786.642 143.461-786.607 170.709-730.362 191.316-670.01 204.18-606.669 204.582-605.218 204.984-603.767 205.369-602.317 238.508-479.025 259.429-345.195 262.208-218.041 266.105-38.819 234.505 154.403 182.192 314.923" fill="#0a599c"/>
<path transform="matrix(1,0,0,-1,5047.797,3840.0255)" d="M0 0V0C-53.99 0-101.596-27.328-129.744-68.906H-394.177-395.545C-470.017-68.906-530.952-126.698-536.048-199.873H-879.042-998.523L-1041.31-227.594-1101.051-266.308-1041.31-305.005-997.737-333.25H-878.221-536.048C-530.952-406.426-470.017-464.218-395.545-464.218H-394.177-127.107C-98.679-503.672-52.343-529.362 0-529.362 8.659-529.362 15.679-522.342 15.679-513.683V-15.679C15.679-7.019 8.659 0 0 0" fill="#0a599c"/>
<path transform="matrix(1,0,0,-1,6303.505,5176.5778)" d="M0 0H-.035C-8.145 4.667-17.094 8.075-26.602 9.928-27.896 10.19-29.207 10.4-30.517 10.592-34.188 11.536-37.438 13.336-40.113 15.765-42.21 17.653-43.94 19.925-45.234 22.442-45.601 23.159-45.916 23.893-46.195 24.662L-46.58 26.27-47.576 30.517-56.193 67.012V67.029L-205.072 698.22V698.238L-210.491 721.117V721.169C-209.634 735.781-201.157 748.33-188.975 754.919H-188.957C-181.022 756.108-173.227 757.698-165.572 759.656H-165.554C-63.726 785.874 11.553 878.316 11.553 988.341V1169.992C11.553 1300.38-94.155 1406.088-224.543 1406.088H-427.535-545.706-1136.084C-1159.505 1406.088-1178.487 1387.107-1178.487 1363.686V794.648C-1178.487 771.227-1159.505 752.245-1136.084 752.245H-743.104C-717.271 752.245-696.315 731.307-696.315 705.456-696.315 684.255-710.42 666.34-729.751 660.607H-756.458-814.521C-836.053 660.607-853.497 643.146-853.497 621.613L-812.808 441.063C-812.808 419.53-795.364 402.069-773.831 402.069H-622.138L-548.292 89.034-545.46 77.044V77.009C-545.146 74.527-544.989 72.011-544.989 69.458-544.989 41.319-564.529 17.741-590.782 11.553H-618.223-758.363C-806.48 11.553-845.492-27.458-845.492-75.576V-287.674C-845.492-335.791-806.48-374.803-758.363-374.803H-43.434C4.684-374.803 43.695-335.791 43.695-287.674V-75.576C43.695-43.259 26.095-15.083 0 0" fill="#0a599c"/>
</g>
</svg>
